<svg preserveAspectRatio="none" width="100%" height="100%" overflow="visible" style="display: block;" viewBox="0 0 33 36" fill="none" xmlns="http://www.w3.org/2000/svg">
<g id="Copyright" clip-path="url(#clip0_304_941)">
<path id="Vector" d="M24.097 20.6351C23.5985 19.0238 22.956 17.465 22.1696 15.9621C21.966 15.5671 21.7484 15.1721 21.5202 14.7842C21.4254 14.6234 21.3306 14.4626 21.2323 14.3054C21.1972 14.2424 21.1586 14.1795 21.12 14.1166C21.0849 14.0607 21.0533 14.0083 21.0146 13.9523C20.0492 12.4075 18.9399 10.971 17.6936 9.63933C17.5075 9.4436 17.3215 9.25137 17.1354 9.06263C15.8294 7.75894 14.4498 6.68943 12.9928 5.85059C11.5675 5.03273 10.2159 4.51894 8.93802 4.31273C8.72036 4.27428 8.50624 4.24982 8.29209 4.23234C7.03879 4.13098 5.92592 4.29525 4.94997 4.73564L4.46195 4.97681C3.37718 5.59195 2.51708 6.55661 1.88517 7.86729C1.25325 9.18147 0.937312 10.7892 0.937312 12.6941C0.937312 14.5989 1.25325 16.5702 1.88517 18.6114C2.51708 20.6525 3.37718 22.6028 4.46195 24.4657C5.54674 26.3287 6.82465 28.0448 8.29209 29.6106C9.75603 31.1764 11.3253 32.4382 12.9928 33.3958C14.6604 34.357 16.2261 34.8952 17.6936 35.014C19.161 35.1364 20.4354 34.8883 21.5202 34.2696C22.5909 33.665 23.437 32.7178 24.0654 31.4386C24.0759 31.4211 24.0865 31.4001 24.097 31.3791C24.7324 30.0685 25.0484 28.4607 25.0484 26.5523C25.0484 24.644 24.7324 22.6762 24.097 20.6351ZM16.6088 18.9469C16.6088 18.9958 16.6053 19.0413 16.6018 19.0867C16.5772 19.4013 16.4648 19.618 16.2612 19.7298C16.033 19.8626 15.7452 19.8277 15.4046 19.632C15.0606 19.4362 14.7762 19.1391 14.5445 18.7442C14.3128 18.3457 14.197 17.9543 14.197 17.5628L11.7851 16.1753V21.6871L11.9888 21.8024L14.197 23.0712C14.197 22.6797 14.3128 22.421 14.5445 22.2882C14.7762 22.1589 15.0606 22.1904 15.4046 22.3861C15.4292 22.4001 15.4573 22.4176 15.4819 22.4316C15.7873 22.6273 16.0506 22.9104 16.2612 23.2774C16.4929 23.6723 16.6088 24.0673 16.6088 24.4588V25.8358C16.6088 26.2238 16.4929 26.4859 16.2612 26.6153C16.1454 26.6817 16.0155 26.7061 15.868 26.6887C15.7276 26.6747 15.5732 26.6153 15.4046 26.5174L10.581 23.7457C10.2405 23.55 9.95259 23.2529 9.72089 22.858C9.4927 22.4595 9.37685 22.068 9.37685 21.6766V13.4141C9.37685 13.0226 9.4927 12.764 9.72089 12.6312C9.95259 12.4984 10.2405 12.5333 10.581 12.729L14.355 14.896L15.4046 15.5007C15.7452 15.6964 16.033 15.9935 16.2612 16.392C16.2823 16.4304 16.3034 16.4688 16.3244 16.5038C16.3525 16.5562 16.3771 16.6052 16.3981 16.6576C16.5385 16.9617 16.6088 17.2692 16.6088 17.5698V18.9469Z" stroke="var(--stroke-0, white)"/>
<path id="Vector_2" d="M15.4817 22.4316L14.1968 23.0712C14.1968 22.6797 14.3127 22.4211 14.5444 22.2883C14.7761 22.1589 15.0605 22.1904 15.4045 22.3861C15.4291 22.4001 15.4572 22.4176 15.4817 22.4316Z" stroke="var(--stroke-0, white)"/>
<path id="Vector_3" d="M16.3243 16.5038L14.1968 17.5628L11.785 16.1752L14.3548 14.896L15.4045 15.5007C15.745 15.6964 16.0328 15.9935 16.261 16.3919C16.2821 16.4304 16.3032 16.4688 16.3243 16.5038Z" stroke="var(--stroke-0, white)"/>
<path id="Vector_4" d="M16.6089 24.4588V25.8358C16.6089 26.2238 16.4929 26.4859 16.2612 26.6153C16.1454 26.6817 16.0155 26.7061 15.8681 26.6887C15.7277 26.6747 15.5732 26.6153 15.4047 26.5174L10.5811 23.7457C10.2405 23.55 9.95262 23.2529 9.72092 22.858C9.49273 22.4595 9.37691 22.0681 9.37691 21.6766V13.4141C9.37691 13.0226 9.49273 12.764 9.72092 12.6312C9.95262 12.4984 10.2405 12.5333 10.5811 12.729L14.355 14.896L11.7852 16.1753V21.6871L11.9888 21.8024L14.197 23.0712L15.4819 22.4316C15.7873 22.6273 16.0506 22.9104 16.2612 23.2774C16.4929 23.6723 16.6089 24.0673 16.6089 24.4588Z" stroke="var(--stroke-0, white)"/>
<path id="Vector_5" d="M16.6087 17.5698V18.9469C16.6087 18.9958 16.6052 19.0413 16.6017 19.0867C16.5771 19.4013 16.4647 19.618 16.2611 19.7298C16.0329 19.8626 15.745 19.8277 15.4045 19.632C15.0605 19.4362 14.7761 19.1391 14.5444 18.7442C14.3127 18.3457 14.1968 17.9543 14.1968 17.5628L16.3243 16.5038C16.3524 16.5562 16.377 16.6052 16.398 16.6576C16.5384 16.9617 16.6087 17.2692 16.6087 17.5698Z" stroke="var(--stroke-0, white)"/>
<path id="Vector_6" d="M32.0695 23.0572C32.0695 24.9655 31.7536 26.5733 31.1182 27.884C30.4862 29.1947 29.6297 30.1593 28.5414 30.7745L28.0463 31.0226L21.5201 34.2696C22.5909 33.665 23.4369 32.7178 24.0653 31.4386C24.0758 31.4211 24.0863 31.4001 24.0969 31.3791C24.7323 30.0685 25.0483 28.4607 25.0483 26.5523C25.0483 24.644 24.7323 22.6762 24.0969 20.6351C23.5984 19.0238 22.956 17.465 22.1696 15.9621C21.966 15.5671 21.7483 15.1721 21.5201 14.7842C21.4253 14.6234 21.3305 14.4626 21.2322 14.3054C21.1971 14.2424 21.1585 14.1795 21.1199 14.1166C21.0848 14.0607 21.0532 14.0083 21.0145 13.9523C20.0491 12.4075 18.9398 10.971 17.6935 9.63933C17.5074 9.4436 17.3214 9.25137 17.1353 9.06263C15.8294 7.75894 14.4496 6.68943 12.9927 5.85059C11.5674 5.03273 10.2158 4.51894 8.93794 4.31273C8.72028 4.27428 8.50614 4.24982 8.29199 4.23234C7.03869 4.13098 5.92582 4.29525 4.94986 4.73564L11.4832 1.48166C12.5679 0.86651 13.8458 0.618354 15.3133 0.737189C16.7772 0.859519 18.3465 1.39777 20.014 2.35544C21.6816 3.31311 23.2473 4.57836 24.7148 6.14419C26.1822 7.71001 27.4566 9.42263 28.5414 11.289C29.6297 13.152 30.4862 15.1022 31.1182 17.1399C31.7536 19.1811 32.0695 21.1523 32.0695 23.0572Z" stroke="var(--stroke-0, white)"/>
</g>
<defs>
<clipPath id="clip0_304_941">
<rect width="33" height="36" fill="white"/>
</clipPath>
</defs>
</svg>
