<svg preserveAspectRatio="none" width="100%" height="100%" overflow="visible" style="display: block;" viewBox="0 0 64 133" fill="none" xmlns="http://www.w3.org/2000/svg">
<g id="he/him icon">
<path id="Vector" d="M31.2248 33.4617C31.2248 36.8146 30.1921 39.0834 28.1149 40.257C27.1156 40.827 26.015 41.0617 24.8136 40.9611C23.5224 40.8605 22.1188 40.3799 20.5918 39.497C19.2669 38.737 18.0321 37.787 16.8868 36.6358C15.4833 35.2499 14.2143 33.5734 13.069 31.6176C10.9919 28.0523 9.95888 24.5876 9.95888 21.2346C9.95888 17.8817 10.9919 15.6129 13.069 14.4282L13.5071 14.2158C15.4945 13.2993 17.8522 13.6234 20.5918 15.1993C23.5224 16.887 26.0377 19.5134 28.1149 23.0787C29.5071 25.4705 30.4391 27.8176 30.8882 30.1199C31.1128 31.2487 31.2248 32.3664 31.2248 33.4617Z" stroke="var(--stroke-0, white)" stroke-width="3"/>
<path id="Vector_2" d="M38.8262 70.8022V95.0886C38.8262 97.0557 38.2426 98.3745 37.0749 99.0339C35.9071 99.6933 34.4698 99.5257 32.7407 98.5422V126.304C32.7407 128.271 32.1567 129.59 31.0003 130.249C29.8325 130.909 28.3843 130.741 26.6664 129.758L14.5063 122.772C12.7884 121.778 11.3511 120.291 10.1834 118.291C9.01567 116.29 8.43202 114.301 8.43202 112.334V84.5716C6.71413 83.5769 5.26559 82.0904 4.1091 80.0898C2.94138 78.0892 2.35746 76.0998 2.35746 74.1328V49.8463C2.35746 46.0239 3.54783 43.4422 5.92819 42.0898L6.68038 41.721C8.90353 40.8157 11.5197 41.218 14.5063 42.9392L24.8136 48.8628L26.6664 49.9245C30.0124 51.8469 32.8755 54.8533 35.2558 58.9439C37.6362 63.0233 38.8262 66.9798 38.8262 70.8022Z" stroke="var(--stroke-0, white)" stroke-width="3"/>
<path id="Vector_3" d="M55.1969 90.0148V115.129C55.1969 117.096 54.6129 118.415 53.4564 119.074L31.0003 130.251C32.1567 129.591 32.7407 128.272 32.7407 126.305V98.5424C34.4698 99.5259 35.9071 99.6937 37.0749 99.0343L55.1969 90.0148Z" stroke="var(--stroke-0, white)" stroke-width="3"/>
<path id="Vector_4" d="M53.681 22.2855C53.681 25.6385 52.6482 27.9073 50.571 29.0808L49.9197 29.405L40.7799 33.9538L28.1149 40.2573C30.1921 39.0838 31.2248 36.815 31.2248 33.462C31.2248 32.3667 31.1128 31.2491 30.8882 30.1203C30.4391 27.8179 29.5071 25.4708 28.1149 23.0791C26.0377 19.5138 23.5224 16.8873 20.5918 15.1997C17.8522 13.6238 15.4945 13.2997 13.5071 14.2161L35.5252 3.25198C37.6024 2.07845 40.1062 2.33551 43.048 4.02316C45.9785 5.71081 48.4938 8.33728 50.571 11.9026C52.6482 15.4679 53.681 18.9214 53.681 22.2855Z" stroke="var(--stroke-0, white)" stroke-width="3"/>
<path id="Vector_5" d="M61.2824 59.6264V83.9128C61.2824 85.8799 60.6987 87.1987 59.531 87.8581L59.1716 88.0369L55.1969 90.0152L37.0749 99.0346C38.2426 98.3752 38.8262 97.0564 38.8262 95.0893V70.8028C38.8262 66.9805 37.6362 63.024 35.2558 58.9446C32.8755 54.854 30.0124 51.8475 26.6664 49.9252L24.8136 48.8634L14.5063 42.9399C11.5197 41.2187 8.90353 40.8164 6.68038 41.7217L16.8868 36.6364C18.0321 37.7875 19.2669 38.7375 20.5918 39.4975C22.1188 40.3805 23.5224 40.8611 24.8136 40.9617C26.015 41.0622 27.1156 40.8275 28.1149 40.2575L40.7799 33.954L49.1226 38.7487C52.4685 40.6711 55.3316 43.6775 57.7119 47.7681C60.0923 51.8475 61.2824 55.804 61.2824 59.6264Z" stroke="var(--stroke-0, white)" stroke-width="3"/>
</g>
</svg>
