<svg preserveAspectRatio="none" width="100%" height="100%" overflow="visible" style="display: block;" viewBox="0 0 58 78" fill="none" xmlns="http://www.w3.org/2000/svg">
<g id="Connect">
<path id="Vector" d="M21.9537 28.3426L21.5463 28.5453C21.4599 28.5883 21.3798 28.6313 21.2934 28.6804L22.1079 28.2751C22.0586 28.2935 22.003 28.3181 21.9537 28.3426Z" stroke="var(--stroke-0, white)"/>
<path id="Vector_2" d="M44.0307 71.3651V75.0133C44.0307 75.7011 43.8209 76.1618 43.4137 76.3952C43.0064 76.6286 42.5004 76.5671 41.8957 76.2232L33.3809 71.3282C32.7762 70.9782 32.2703 70.4561 31.8631 69.756C31.4559 69.0558 31.2521 68.3618 31.2521 67.6678V64.6276C29.8638 63.3071 28.6237 61.7901 27.5254 60.0829C26.4209 58.3816 25.551 56.5944 24.9154 54.7273C24.6316 53.9535 24.6316 53.3454 24.9154 52.9032C25.0388 52.7067 25.193 52.5531 25.372 52.4549C25.409 52.4365 25.446 52.4242 25.483 52.4057L25.557 52.3689C25.7421 52.3013 25.9581 52.2768 26.1926 52.2952C26.6862 52.3382 27.186 52.6453 27.6796 53.2165C28.1794 53.7815 28.5681 54.4326 28.8519 55.1634C29.4196 56.6682 30.2033 58.0501 31.1967 59.3091C32.1901 60.5682 33.2698 61.5383 34.4422 62.2078L40.8345 65.8805C41.723 66.3903 42.4758 67.1764 43.099 68.2451C43.716 69.3137 44.0307 70.3517 44.0307 71.3651Z" stroke="var(--stroke-0, white)"/>
<path id="Vector_3" d="M35.5096 43.3593C35.5096 44.0472 35.306 44.5078 34.8988 44.7412C34.4916 44.9746 33.9856 44.9131 33.3809 44.5692C32.2086 43.8936 31.2028 43.7953 30.3698 44.2683C29.5368 44.7412 29.1172 45.6501 29.1172 46.989C29.1172 47.6769 28.9136 48.1375 28.5064 48.3648C28.0991 48.5982 27.5932 48.5429 26.9885 48.1928C26.3838 47.8489 25.8779 47.3268 25.4706 46.6205C25.0634 45.9204 24.8598 45.2264 24.8598 44.5385C24.8598 42.8925 25.1745 41.5659 25.8101 40.5771C26.205 39.9506 26.7233 39.4654 27.365 39.1031L27.766 38.9065C28.4323 38.6056 29.1481 38.4827 29.9132 38.5319C30.9683 38.5933 32.1284 38.9864 33.3809 39.7049C33.9856 40.0489 34.4916 40.5771 34.8988 41.2772C35.306 41.9774 35.5096 42.6714 35.5096 43.3593Z" stroke="var(--stroke-0, white)"/>
<path id="Vector_4" d="M35.5096 33.6306C35.5096 34.3185 35.306 34.7791 34.8988 35.0125C34.4916 35.2459 33.9856 35.1844 33.3809 34.8405L32.9921 34.6194C31.4557 33.7903 30.0181 33.2805 28.6853 33.1024C27.0811 32.8874 25.631 33.1515 24.3291 33.8947C21.8425 35.3011 20.6024 38.0342 20.6024 42.0878C20.6024 42.7818 20.3987 43.2424 19.9914 43.4696C19.578 43.703 19.0721 43.6478 18.4736 43.2977C17.8689 42.9537 17.363 42.4256 16.9557 41.7254C16.5485 41.0252 16.3387 40.3312 16.3387 39.6433C16.3387 34.2079 17.9923 30.5597 21.2934 28.6804L22.1079 28.275C24.2428 27.3353 26.6677 27.2924 29.3703 28.1584C30.6413 28.5637 31.9803 29.1717 33.3809 29.9763C33.6216 30.1114 33.8498 30.2773 34.0596 30.4799C34.3743 30.7686 34.652 31.1248 34.8988 31.5424C35.306 32.2487 35.5096 32.9427 35.5096 33.6306Z" stroke="var(--stroke-0, white)"/>
<path id="Vector_5" d="M12.0813 15.3037C12.0813 16.6426 11.6679 17.5455 10.8287 18.0184C9.99574 18.4913 8.99611 18.393 7.82377 17.7174C7.1759 17.3489 6.57745 16.8576 6.04066 16.2495C5.59024 15.7644 5.18301 15.1993 4.8128 14.5606C3.97982 13.1295 3.56023 11.7415 3.56023 10.4088C3.56023 9.07601 3.97982 8.16089 4.8128 7.68797L5.07807 7.559C5.85552 7.23963 6.77483 7.38089 7.82377 7.98892C8.99611 8.66451 9.99574 9.71475 10.8287 11.1458C11.273 11.9012 11.6001 12.6505 11.8037 13.3814C11.9888 14.0324 12.0813 14.6711 12.0813 15.3037Z" stroke="var(--stroke-0, white)"/>
<path id="Vector_6" d="M56.3711 65.224V68.8722C56.3711 69.56 56.1613 70.0207 55.7541 70.254L55.6306 70.3155L43.4137 76.3958C43.8209 76.1624 44.0307 75.7018 44.0307 75.0139V71.3657C44.0307 70.3523 43.716 69.3144 43.099 68.2457C42.4758 67.177 41.7229 66.3909 40.8344 65.8811L34.4422 62.2084C33.2698 61.5389 32.1901 60.5683 31.1967 59.3092C30.2033 58.0502 29.4196 56.6683 28.8519 55.1636C28.5681 54.4327 28.1794 53.7817 27.6796 53.2166C27.186 52.6455 26.6862 52.3384 26.1926 52.2954C25.9581 52.2769 25.7421 52.3015 25.557 52.3691L25.483 52.4059C25.446 52.4244 25.409 52.4366 25.372 52.4551L37.7308 46.301L37.8049 46.2642C38.0147 46.1721 38.2553 46.1352 38.533 46.1536C39.0266 46.1966 39.5264 46.5037 40.0201 47.0749C40.3841 47.4864 40.6864 47.947 40.9333 48.4445L37.7926 50.0106L34.8988 51.454L34.6335 51.5829C33.7943 52.0558 33.3809 52.9587 33.3809 54.2976C33.3809 55.6365 33.7943 57.0245 34.6335 58.4555C35.4664 59.8866 36.466 60.9368 37.6383 61.6126C38.8106 62.2882 39.8103 62.3865 40.6494 61.9136L43.5925 60.4516L49.3864 57.565L53.1748 59.7392C54.0633 60.2489 54.8162 61.0351 55.4394 62.104C56.0564 63.1726 56.3711 64.2106 56.3711 65.224Z" stroke="var(--stroke-0, white)"/>
<path id="Vector_7" d="M41.3713 41.5227C41.2787 41.8482 41.0998 42.0816 40.8468 42.2228L40.7172 42.2842L28.5064 48.3645C28.9136 48.1373 29.1172 47.6767 29.1172 46.9888C29.1172 45.6499 29.5368 44.7409 30.3698 44.268C31.2028 43.7951 32.2086 43.8934 33.3809 44.569C33.9856 44.9129 34.4916 44.9743 34.8988 44.7409L39.835 42.2842H39.8411L41.3713 41.5227Z" stroke="var(--stroke-0, white)"/>
<path id="Vector_8" d="M20.8677 25.1551C20.3864 26.1992 19.7262 26.9792 18.8871 27.4767L18.2021 27.8206C17.036 28.2813 15.7032 28.3673 14.21 28.0786V31.1187C14.21 31.8128 14.0064 32.2734 13.5991 32.5006C13.1919 32.734 12.686 32.6787 12.0813 32.3287L3.56023 27.4337C2.96171 27.0898 2.45579 26.5616 2.04855 25.8614C1.63515 25.1613 1.43153 24.4673 1.43153 23.7794V20.1312C1.43153 19.1178 1.74622 18.4299 2.36324 18.0798C2.98643 17.7298 3.73915 17.8035 4.62766 18.3132L11.0201 21.986C12.1862 22.6616 13.2722 22.938 14.2656 22.8213C15.1664 22.7169 15.8945 22.3054 16.4375 21.5991C16.4992 21.5315 16.5546 21.4517 16.6102 21.3718C16.7521 21.1691 16.9249 21.0033 17.1223 20.8866L17.2951 20.8006C17.4432 20.7331 17.6037 20.6962 17.7764 20.6717C18.2762 20.6164 18.7884 20.8375 19.3252 21.3473C19.9237 21.9 20.3864 22.551 20.7073 23.3003C20.843 23.6258 20.9355 23.9268 20.9726 24.2032C21.0219 24.5594 20.985 24.8787 20.8677 25.1551Z" stroke="var(--stroke-0, white)"/>
<path id="Vector_9" d="M25.6126 16.6672L17.2951 20.8006L17.1223 20.8866C16.9249 21.0033 16.7521 21.1691 16.6102 21.3718C16.5546 21.4516 16.4992 21.5314 16.4375 21.599C15.8945 22.3053 15.1664 22.7168 14.2656 22.8212C13.2722 22.9379 12.1862 22.6615 11.0201 21.9859L4.62766 18.3132C3.73915 17.8034 2.98643 17.7297 2.36324 18.0798L6.04066 16.2495C6.57745 16.8576 7.1759 17.3489 7.82377 17.7174C8.99611 18.393 9.99574 18.4913 10.8287 18.0184L13.772 16.5566L19.5719 13.67L23.3605 15.8442C24.1503 16.3048 24.903 16.5751 25.6126 16.6672Z" stroke="var(--stroke-0, white)"/>
<path id="Vector_10" d="M41.8957 59.1924C41.8957 60.5313 41.4824 61.44 40.6494 61.913C39.8103 62.3859 38.8106 62.2876 37.6383 61.612C36.466 60.9366 35.4664 59.8864 34.6335 58.4554C33.7943 57.0243 33.3809 55.6363 33.3809 54.2974C33.3809 52.9585 33.7943 52.0557 34.6335 51.5828L34.8988 51.4538C35.6762 51.1344 36.5894 51.2757 37.6383 51.8837C38.3972 52.3136 39.076 52.9094 39.6869 53.6587C40.0324 54.0702 40.3532 54.5308 40.6494 55.0406C40.6926 55.1081 40.7296 55.1818 40.7605 55.2494C41.5194 56.6067 41.8957 57.9272 41.8957 59.1924Z" stroke="var(--stroke-0, white)"/>
<path id="Vector_11" d="M54.2361 53.0509C54.2361 54.3898 53.8228 55.2987 52.9898 55.7717L52.7245 55.9006L49.3864 57.565L43.5925 60.4517L40.6494 61.9136C41.4824 61.4407 41.8957 60.5315 41.8957 59.1926C41.8957 57.9274 41.5194 56.6069 40.7605 55.2496C40.7296 55.1821 40.6926 55.1083 40.6494 55.0408C40.3533 54.531 40.0324 54.0704 39.6869 53.6589C39.076 52.9096 38.3972 52.3139 37.6383 51.8839C36.5894 51.2759 35.6762 51.1346 34.8988 51.454L37.7926 50.0107L40.9333 48.4446L46.9739 45.4413C47.8069 44.9683 48.8064 45.0666 49.9787 45.7422C51.1511 46.4117 52.1507 47.468 52.9898 48.8991C53.8228 50.3301 54.2361 51.7181 54.2361 53.0509Z" stroke="var(--stroke-0, white)"/>
<path id="Vector_12" d="M47.85 37.2174C47.85 37.9052 47.6464 38.3659 47.2392 38.5993L47.1158 38.6607L41.3713 41.5166L39.8411 42.2843H39.835L34.8988 44.741C35.306 44.5076 35.5096 44.047 35.5096 43.3591C35.5096 42.6712 35.306 41.9771 34.8988 41.277C34.4916 40.5768 33.9856 40.0486 33.3809 39.7047C32.1284 38.9861 30.9683 38.5931 29.9132 38.5317C29.1481 38.4826 28.4323 38.6054 27.766 38.9063L31.0424 37.2726L32.912 36.3452L39.7054 32.9611C41.3713 32.0153 43.3767 32.2179 45.7213 33.563C46.326 33.9069 46.832 34.4351 47.2392 35.1353C47.6464 35.8354 47.85 36.5295 47.85 37.2174Z" stroke="var(--stroke-0, white)"/>
<path id="Vector_13" d="M32.9921 34.6195C32.9613 35.0432 32.9428 35.4855 32.9428 35.9461C32.9428 36.0873 32.9367 36.2163 32.912 36.3392L31.0424 37.2727L27.766 38.9064L27.365 39.1029C26.7233 39.4653 26.205 39.9505 25.8101 40.5708L19.9914 43.4697C20.3987 43.2425 20.6024 42.7818 20.6024 42.0878C20.6024 38.0343 21.8425 35.3012 24.3291 33.8947C25.631 33.1516 27.0811 32.8875 28.6853 33.1025C30.0181 33.2806 31.4557 33.7903 32.9921 34.6195Z" stroke="var(--stroke-0, white)"/>
<path id="Vector_14" d="M47.85 27.4889C47.85 28.1767 47.6464 28.6374 47.2392 28.8707L47.1158 28.9322L34.8988 35.0125C35.306 34.7791 35.5096 34.3185 35.5096 33.6306C35.5096 32.9427 35.306 32.2487 34.8988 31.5424C34.652 31.1248 34.3743 30.7685 34.0596 30.4799C33.8498 30.2772 33.6216 30.1114 33.3809 29.9763C31.9803 29.1717 30.6413 28.5637 29.3703 28.1583C26.6677 27.2923 24.2428 27.3353 22.1079 28.275L33.6338 22.5386C36.9349 20.6654 40.9641 21.0953 45.7213 23.8345C46.326 24.1785 46.832 24.7005 47.2392 25.4007C47.6464 26.107 47.85 26.801 47.85 27.4889Z" stroke="var(--stroke-0, white)"/>
<path id="Vector_15" d="M26.5504 23.6748V24.9768C26.5504 25.6708 26.3468 26.1315 25.9396 26.3587L25.8101 26.4201L21.9537 28.3425L21.5463 28.5452L13.5991 32.5005C14.0064 32.2732 14.21 31.8126 14.21 31.1186V28.0784C15.7032 28.3671 17.036 28.2811 18.2021 27.8205L18.8871 27.4765L23.0643 25.4068L26.5504 23.6748Z" stroke="var(--stroke-0, white)"/>
<path id="Vector_16" d="M33.2081 19.0133C32.696 20.1311 31.9741 20.9479 31.0424 21.4454L30.6906 21.6174L26.5504 23.6748L23.0643 25.4068L18.8871 27.4766C19.7262 26.9791 20.3864 26.1991 20.8677 25.155C20.985 24.8786 21.0219 24.5593 20.9726 24.203C20.9355 23.9267 20.843 23.6257 20.7073 23.3002C20.3864 22.5509 19.9237 21.8999 19.3252 21.3471C18.7884 20.8374 18.2762 20.6163 17.7764 20.6715C17.6037 20.6961 17.4432 20.733 17.2951 20.8005L25.6126 16.6671H25.6187L29.4072 14.7816L29.4257 14.7693C29.6231 14.6404 29.8577 14.5605 30.1169 14.5298C30.6167 14.4745 31.1288 14.6956 31.6656 15.2054C32.2641 15.7582 32.7269 16.4092 33.0477 17.1585C33.3686 17.9078 33.4179 18.5281 33.2081 19.0133Z" stroke="var(--stroke-0, white)"/>
<path id="Vector_17" d="M31.1163 21.4085L31.0424 21.4453" stroke="var(--stroke-0, white)"/>
<path id="Vector_18" d="M29.617 14.6772L29.4257 14.7693" stroke="var(--stroke-0, white)"/>
<path id="Vector_19" d="M24.4218 9.16193C24.4218 10.5008 24.0083 11.4037 23.1691 11.8766L22.9039 12.0056L19.5719 13.67L13.772 16.5566L10.8287 18.0183C11.6679 17.5454 12.0813 16.6426 12.0813 15.3037C12.0813 14.6711 11.9888 14.0323 11.8037 13.3813C11.6001 12.6504 11.273 11.9011 10.8287 11.1457C9.99574 9.71468 8.99611 8.66445 7.82377 7.98886C6.77483 7.38083 5.85552 7.23957 5.07807 7.55894L17.1532 1.54617C17.9862 1.07326 18.9919 1.17152 20.1642 1.84711C21.3365 2.5227 22.3362 3.57293 23.1691 5.00396C24.0083 6.435 24.4218 7.82303 24.4218 9.16193Z" stroke="var(--stroke-0, white)"/>
</g>
</svg>
