<svg width="32" height="22" viewBox="0 0 32 22" fill="none" xmlns="http://www.w3.org/2000/svg">
<g clip-path="url(#clip0_351_332)">
<path d="M6.64327 12.3048V11.9994C6.61255 12.1029 6.60999 12.2039 6.64327 12.3048ZM23.8132 13.5472C23.8158 13.5679 23.8183 13.5886 23.8183 13.6093V13.5472C23.8183 13.5472 23.8158 13.5497 23.8132 13.5472Z" stroke="#415A77" stroke-width="0.6"/>
<path d="M31.4803 8.44837V8.47164C31.4803 9.35164 31.232 10.2109 30.7328 11.0573C30.6662 11.1712 30.5946 11.2851 30.5203 11.3964C30.039 12.1185 29.3709 12.7836 28.5235 13.3893C28.2394 13.5912 27.9373 13.7853 27.6122 13.9742C26.3168 14.73 24.8448 15.2943 23.1987 15.6721C22.1671 15.9077 21.1226 16.0681 20.0653 16.1561C19.4304 16.2053 18.7904 16.2312 18.1453 16.2312C17.3952 16.2312 16.6502 16.1924 15.913 16.1173C15.7978 16.107 15.6826 16.094 15.5674 16.0811C14.7328 15.9853 13.9059 15.8429 13.0867 15.654C11.8247 15.3615 10.665 14.9578 9.60767 14.4453C9.27999 14.2874 8.96255 14.1166 8.65535 13.938C8.30207 13.7335 7.98207 13.5239 7.69023 13.3142C7.42655 13.1227 7.18079 12.9234 6.95039 12.719C6.92735 12.6983 6.90687 12.6801 6.88383 12.6594C6.75839 12.543 6.67903 12.4239 6.64319 12.3048V11.9994C6.71231 11.7742 6.92991 11.5957 7.29855 11.4611C7.66719 11.3291 8.04351 11.2851 8.43007 11.3265C8.81663 11.3679 9.12383 11.4947 9.35423 11.7121C9.54879 11.8855 9.76383 12.0589 10.0019 12.2272C10.24 12.398 10.4909 12.5585 10.7546 12.7138C10.7622 12.7189 10.7674 12.7215 10.7751 12.7241C12.1754 13.5394 13.7728 14.0752 15.5674 14.3314C15.9488 14.3883 16.3379 14.4298 16.7347 14.4582C17.1904 14.4919 17.6589 14.51 18.1376 14.51C18.3143 14.51 18.4909 14.51 18.6675 14.5023C20.5747 14.4583 22.2899 14.1399 23.8131 13.5472C23.8157 13.5679 23.8182 13.5886 23.8182 13.6093V13.5472C24.407 13.3194 24.9677 13.0502 25.5002 12.7396C26.3859 12.222 27.0771 11.6578 27.5763 11.047C28.1549 10.3326 28.4723 9.55614 28.5235 8.71237C28.5286 8.62437 28.5312 8.53376 28.5312 8.44317C28.521 6.76082 27.4944 5.32435 25.4541 4.13376C23.4112 2.94058 20.9511 2.34272 18.0711 2.33754C15.1936 2.33236 12.7386 2.92246 10.7085 4.10529C10.4448 4.26058 10.2016 4.41846 9.97378 4.58152C9.74594 4.74458 9.53602 4.91284 9.34402 5.08625C9.11874 5.30108 8.81151 5.43049 8.42495 5.46931C8.03839 5.51073 7.6621 5.46411 7.29346 5.32952C6.92226 5.19493 6.70207 5.01637 6.63039 4.7912C6.61247 4.73943 6.60479 4.68767 6.60479 4.6359C6.60223 4.46508 6.68927 4.29682 6.86335 4.13117C7.10911 3.90599 7.37535 3.68858 7.66463 3.47893C7.95135 3.26929 8.26367 3.06741 8.59647 2.87329C9.88927 2.11753 11.3613 1.55072 13.0099 1.17543C14.6586 0.800132 16.343 0.613771 18.0608 0.61636C19.7811 0.618948 21.4682 0.810472 23.1194 1.19353C24.7731 1.57659 26.2502 2.146 27.5533 2.90693C28.8563 3.66788 29.8342 4.52976 30.4896 5.49517C31.145 6.46058 31.4726 7.44414 31.4803 8.44837Z" stroke="#415A77" stroke-width="0.6"/>
<path d="M23.8105 8.51297C23.8105 8.51297 23.8156 8.51556 23.8182 8.51556V8.43274C23.8182 8.45862 23.8156 8.48709 23.8105 8.51297Z" stroke="#415A77" stroke-width="0.6"/>
<path d="M18.7314 7.56318H16.7218L15.534 7.55801V5.34509C15.534 5.55215 15.6492 5.73333 15.8796 5.8938C15.9129 5.91709 15.9462 5.94039 15.9846 5.96109L18.6649 7.52436L18.7314 7.56318Z" stroke="#415A77" stroke-width="0.6"/>
<path d="M18.7391 9.28433L17.856 9.79939L16.0102 10.8787C15.9334 10.9227 15.8668 10.9693 15.8105 11.0185C15.6466 11.1582 15.5647 11.3161 15.5673 11.4921V14.3314C13.7727 14.0752 12.1753 13.5394 10.775 12.7241C10.7673 12.7215 10.7621 12.7189 10.7545 12.7137C10.4908 12.5585 10.2399 12.398 10.0019 12.2272C9.76377 12.0589 9.54873 11.8855 9.35417 11.7121C9.12377 11.4947 8.81657 11.3679 8.43001 11.3265C8.04345 11.2851 7.66711 11.3291 7.29847 11.4611C6.92983 11.5957 6.71225 11.7742 6.64313 11.9994C6.61241 12.1029 6.60985 12.2039 6.64313 12.3048V14.4401L2.09913 14.4324C1.71513 14.4298 1.37209 14.3417 1.07257 14.1683C0.773052 13.9923 0.622009 13.7931 0.622009 13.5679V8.39142C0.622009 8.61659 0.773052 8.81586 1.07257 8.99186C1.37209 9.16528 1.71513 9.2533 2.09913 9.25589L6.60473 9.26365H6.91196L10.7289 9.27139L15.534 9.27916L18.7391 9.28433Z" stroke="#415A77" stroke-width="0.6"/>
<path d="M23.8182 8.43284C23.8182 8.45872 23.8156 8.48722 23.8105 8.5131C23.7824 8.71498 23.6364 8.89354 23.3728 9.04884L19.9884 11.0237L18.1248 12.1107C18.0428 12.1599 17.9558 12.2013 17.8662 12.235C17.6281 12.3282 17.3644 12.3722 17.0726 12.3722C16.6681 12.3696 16.3174 12.2816 16.0179 12.1082C15.7184 11.9322 15.5673 11.7277 15.5673 11.4922C15.5648 11.3162 15.6467 11.1583 15.8105 11.0185C15.8668 10.9693 15.9334 10.9227 16.0102 10.8787L17.856 9.79945L18.7392 9.28439L15.534 9.27919L10.7289 9.27143L6.91199 9.26369H6.60476L2.09917 9.25592C1.71517 9.25334 1.37212 9.16534 1.0726 8.99192C0.773084 8.81592 0.622042 8.61663 0.622042 8.39145C0.619482 8.16628 0.767959 7.96698 1.06492 7.79357C1.36188 7.62016 1.70492 7.53213 2.09148 7.53213L6.60476 7.53992H6.63036L9.5462 7.5451L15.534 7.55802H16.7219L18.7315 7.56319L18.6649 7.52437L15.9846 5.9611C15.9462 5.94039 15.9129 5.9171 15.8796 5.89381C15.6492 5.73333 15.534 5.55216 15.534 5.3451C15.5315 5.10957 15.68 4.9051 15.9769 4.73169C16.2739 4.55828 16.6246 4.47028 17.0291 4.47028C17.4336 4.47286 17.7843 4.56086 18.0838 4.73428L20.0524 5.88343L23.3676 7.81684C23.6646 7.99284 23.8156 8.19731 23.8182 8.43284Z" stroke="#415A77" stroke-width="0.6"/>
<path d="M28.5312 8.44318C28.5312 8.53377 28.5286 8.62439 28.5235 8.71239C28.4723 9.55615 28.1549 10.3326 27.5763 11.047C27.0694 10.4206 26.3629 9.84083 25.454 9.31024C24.9369 9.00742 24.3891 8.74345 23.8182 8.51568V8.43283C23.8156 8.1973 23.6646 7.99283 23.3676 7.81683L20.0524 5.88342L18.0838 4.73427C17.7843 4.56086 17.4335 4.47286 17.0291 4.47027C16.6246 4.47027 16.2739 4.55827 15.9769 4.73168C15.6799 4.90509 15.5315 5.10956 15.534 5.34509V7.55801L9.54618 7.54509L6.63034 7.53992H6.60474V4.63592C6.60474 4.68768 6.61242 4.73945 6.63034 4.79121C6.70202 5.01639 6.9222 5.19495 7.2934 5.32954C7.66204 5.46413 8.03834 5.51074 8.4249 5.46933C8.81146 5.4305 9.11868 5.30109 9.34396 5.08627C9.53596 4.91286 9.74586 4.7446 9.9737 4.58154C10.2015 4.41848 10.4447 4.2606 10.7084 4.1053C12.7385 2.92248 15.1935 2.33238 18.071 2.33756C20.951 2.34273 23.4111 2.9406 25.454 4.13377C27.4944 5.32436 28.5209 6.76083 28.5312 8.44318Z" stroke="#415A77" stroke-width="0.6"/>
<path d="M23.8181 8.51571V13.5472C23.8181 13.5472 23.8156 13.5498 23.813 13.5472C22.2898 14.1399 20.5746 14.4583 18.6674 14.5023C18.4908 14.5075 18.3141 14.5101 18.1375 14.5101C17.6588 14.5101 17.1903 14.4919 16.7346 14.4583C16.3378 14.4298 15.9487 14.3884 15.5673 14.3315V11.4922C15.5673 11.7277 15.7183 11.9322 16.0178 12.1082C16.3173 12.2816 16.6681 12.3696 17.0725 12.3722C17.3644 12.3722 17.6281 12.3282 17.8661 12.235C17.9557 12.2014 18.0428 12.1599 18.1247 12.1108L19.9884 11.0237L23.3727 9.04886C23.6364 8.89357 23.7823 8.715 23.8104 8.51312C23.813 8.51571 23.8156 8.51571 23.8181 8.51571Z" stroke="#415A77" stroke-width="0.6"/>
<path d="M31.4803 8.47168V13.6249C31.4855 14.6291 31.1655 15.6101 30.5203 16.5729C29.8778 17.5357 28.9075 18.395 27.6122 19.1508C26.3168 19.9065 24.8447 20.4708 23.1987 20.8486C21.55 21.2239 19.8655 21.4103 18.1452 21.4077C16.4249 21.4051 14.7404 21.211 13.0867 20.8305C11.4355 20.4474 9.95832 19.8754 8.65528 19.1145C8.302 18.91 7.982 18.7004 7.69016 18.4907C7.40088 18.2811 7.13208 18.0611 6.88376 17.8359C6.65336 17.6211 6.574 17.4011 6.64312 17.1759V12.3049C6.67896 12.4239 6.75832 12.543 6.88376 12.6595C6.9068 12.6802 6.92728 12.6983 6.95032 12.719C7.18072 12.9235 7.42648 13.1227 7.69016 13.3143C7.982 13.5239 8.302 13.7336 8.65528 13.938C8.96248 14.1166 9.27992 14.2875 9.6076 14.4454C10.6649 14.9578 11.8246 15.3616 13.0867 15.654C13.9059 15.843 14.7327 15.9854 15.5673 16.0811C15.6825 16.0941 15.7977 16.107 15.9129 16.1174C16.6502 16.1924 17.3951 16.2312 18.1452 16.2312C18.7903 16.2312 19.4303 16.2054 20.0652 16.1562C21.1225 16.0682 22.167 15.9077 23.1987 15.6722C24.8447 15.2943 26.3168 14.7301 27.6122 13.9743C27.9373 13.7854 28.2394 13.5912 28.5235 13.3893C29.3709 12.7837 30.0391 12.1185 30.5203 11.3964C30.5946 11.2851 30.6663 11.1712 30.7328 11.0573C31.232 10.211 31.4803 9.35168 31.4803 8.47168Z" stroke="#415A77" stroke-width="0.6"/>
</g>
<defs>
<clipPath id="clip0_351_332">
<rect width="32" height="22" fill="white"/>
</clipPath>
</defs>
</svg>
